<svg id="visual" viewBox="0 0 960 540" width="960" height="540" xmlns="http://www.w3.org/2000/svg" xmlns:xlink="http://www.w3.org/1999/xlink" version="1.1"><rect x="0" y="0" width="960" height="540" fill="#161a1d"></rect><path d="M0 274L20 278.8C40 283.7 80 293.3 120 305.2C160 317 200 331 240 328C280 325 320 305 360 294.7C400 284.3 440 283.7 480 284.5C520 285.3 560 287.7 600 285.3C640 283 680 276 720 273.3C760 270.7 800 272.3 840 281.8C880 291.3 920 308.7 940 317.3L960 326L960 541L940 541C920 541 880 541 840 541C800 541 760 541 720 541C680 541 640 541 600 541C560 541 520 541 480 541C440 541 400 541 360 541C320 541 280 541 240 541C200 541 160 541 120 541C80 541 40 541 20 541L0 541Z" fill="#bb7df2"></path><path d="M0 332L20 341.5C40 351 80 370 120 378.7C160 387.3 200 385.7 240 382C280 378.3 320 372.7 360 364.2C400 355.7 440 344.3 480 337.5C520 330.7 560 328.3 600 334.2C640 340 680 354 720 361C760 368 800 368 840 362.8C880 357.7 920 347.3 940 342.2L960 337L960 541L940 541C920 541 880 541 840 541C800 541 760 541 720 541C680 541 640 541 600 541C560 541 520 541 480 541C440 541 400 541 360 541C320 541 280 541 240 541C200 541 160 541 120 541C80 541 40 541 20 541L0 541Z" fill="#ab6ae5"></path><path d="M0 430L20 430.7C40 431.3 80 432.7 120 422.5C160 412.3 200 390.7 240 384C280 377.3 320 385.7 360 384.5C400 383.3 440 372.7 480 368C520 363.3 560 364.7 600 374.7C640 384.7 680 403.3 720 405.7C760 408 800 394 840 392C880 390 920 400 940 405L960 410L960 541L940 541C920 541 880 541 840 541C800 541 760 541 720 541C680 541 640 541 600 541C560 541 520 541 480 541C440 541 400 541 360 541C320 541 280 541 240 541C200 541 160 541 120 541C80 541 40 541 20 541L0 541Z" fill="#9b56d8"></path><path d="M0 472L20 470.3C40 468.7 80 465.3 120 459.3C160 453.3 200 444.7 240 438.2C280 431.7 320 427.3 360 423C400 418.7 440 414.3 480 413.2C520 412 560 414 600 415.5C640 417 680 418 720 425C760 432 800 445 840 447.5C880 450 920 442 940 438L960 434L960 541L940 541C920 541 880 541 840 541C800 541 760 541 720 541C680 541 640 541 600 541C560 541 520 541 480 541C440 541 400 541 360 541C320 541 280 541 240 541C200 541 160 541 120 541C80 541 40 541 20 541L0 541Z" fill="#8b42cb"></path><path d="M0 495L20 490.2C40 485.3 80 475.7 120 477.2C160 478.7 200 491.3 240 498.2C280 505 320 506 360 504C400 502 440 497 480 490.8C520 484.7 560 477.3 600 475.7C640 474 680 478 720 483.3C760 488.7 800 495.3 840 491.8C880 488.3 920 474.7 940 467.8L960 461L960 541L940 541C920 541 880 541 840 541C800 541 760 541 720 541C680 541 640 541 600 541C560 541 520 541 480 541C440 541 400 541 360 541C320 541 280 541 240 541C200 541 160 541 120 541C80 541 40 541 20 541L0 541Z" fill="#7b2cbf"></path></svg>