<svg id="visual" viewBox="0 0 960 540" width="960" height="540" xmlns="http://www.w3.org/2000/svg" xmlns:xlink="http://www.w3.org/1999/xlink" version="1.1"><rect x="0" y="0" width="960" height="540" fill="#0b090a"></rect><path d="M0 202L20 200.2C40 198.3 80 194.7 120 204.2C160 213.7 200 236.3 240 242C280 247.7 320 236.3 360 224.3C400 212.3 440 199.7 480 193.3C520 187 560 187 600 195.8C640 204.7 680 222.3 720 236.7C760 251 800 262 840 256.3C880 250.7 920 228.3 940 217.2L960 206L960 0L940 0C920 0 880 0 840 0C800 0 760 0 720 0C680 0 640 0 600 0C560 0 520 0 480 0C440 0 400 0 360 0C320 0 280 0 240 0C200 0 160 0 120 0C80 0 40 0 20 0L0 0Z" fill="#bb7df2"></path><path d="M0 157L20 167.3C40 177.7 80 198.3 120 207C160 215.7 200 212.3 240 207.7C280 203 320 197 360 185.8C400 174.7 440 158.3 480 161.7C520 165 560 188 600 196.3C640 204.7 680 198.3 720 196.7C760 195 800 198 840 200.5C880 203 920 205 940 206L960 207L960 0L940 0C920 0 880 0 840 0C800 0 760 0 720 0C680 0 640 0 600 0C560 0 520 0 480 0C440 0 400 0 360 0C320 0 280 0 240 0C200 0 160 0 120 0C80 0 40 0 20 0L0 0Z" fill="#ab6ae5"></path><path d="M0 132L20 131.2C40 130.3 80 128.7 120 125.7C160 122.7 200 118.3 240 121.3C280 124.3 320 134.7 360 140.3C400 146 440 147 480 149.8C520 152.7 560 157.3 600 155.3C640 153.3 680 144.7 720 135C760 125.3 800 114.7 840 121C880 127.3 920 150.7 940 162.3L960 174L960 0L940 0C920 0 880 0 840 0C800 0 760 0 720 0C680 0 640 0 600 0C560 0 520 0 480 0C440 0 400 0 360 0C320 0 280 0 240 0C200 0 160 0 120 0C80 0 40 0 20 0L0 0Z" fill="#9b56d8"></path><path d="M0 126L20 124.3C40 122.7 80 119.3 120 117C160 114.7 200 113.3 240 107.5C280 101.7 320 91.3 360 92.8C400 94.3 440 107.7 480 112.8C520 118 560 115 600 110.7C640 106.3 680 100.7 720 102.2C760 103.7 800 112.3 840 112.2C880 112 920 103 940 98.5L960 94L960 0L940 0C920 0 880 0 840 0C800 0 760 0 720 0C680 0 640 0 600 0C560 0 520 0 480 0C440 0 400 0 360 0C320 0 280 0 240 0C200 0 160 0 120 0C80 0 40 0 20 0L0 0Z" fill="#8b42cb"></path><path d="M0 39L20 43.2C40 47.3 80 55.7 120 60.8C160 66 200 68 240 62.2C280 56.3 320 42.7 360 40.5C400 38.3 440 47.7 480 54C520 60.3 560 63.7 600 60.2C640 56.7 680 46.3 720 42.8C760 39.3 800 42.7 840 41.5C880 40.3 920 34.7 940 31.8L960 29L960 0L940 0C920 0 880 0 840 0C800 0 760 0 720 0C680 0 640 0 600 0C560 0 520 0 480 0C440 0 400 0 360 0C320 0 280 0 240 0C200 0 160 0 120 0C80 0 40 0 20 0L0 0Z" fill="#7b2cbf"></path></svg>