<svg id="visual" viewBox="0 0 960 540" width="960" height="540" xmlns="http://www.w3.org/2000/svg" xmlns:xlink="http://www.w3.org/1999/xlink" version="1.1"><rect x="0" y="0" width="960" height="540" fill="#0b090a"></rect><path d="M0 300L20 294.3C40 288.7 80 277.3 120 278.3C160 279.3 200 292.7 240 303.5C280 314.3 320 322.7 360 323.3C400 324 440 317 480 309C520 301 560 292 600 285.2C640 278.3 680 273.7 720 279.7C760 285.7 800 302.3 840 309C880 315.7 920 312.3 940 310.7L960 309L960 541L940 541C920 541 880 541 840 541C800 541 760 541 720 541C680 541 640 541 600 541C560 541 520 541 480 541C440 541 400 541 360 541C320 541 280 541 240 541C200 541 160 541 120 541C80 541 40 541 20 541L0 541Z" fill="#bb7df2"></path><path d="M0 366L20 358.2C40 350.3 80 334.7 120 332.3C160 330 200 341 240 343.5C280 346 320 340 360 341.2C400 342.3 440 350.7 480 357.3C520 364 560 369 600 375.3C640 381.7 680 389.3 720 386.3C760 383.3 800 369.7 840 368.3C880 367 920 378 940 383.5L960 389L960 541L940 541C920 541 880 541 840 541C800 541 760 541 720 541C680 541 640 541 600 541C560 541 520 541 480 541C440 541 400 541 360 541C320 541 280 541 240 541C200 541 160 541 120 541C80 541 40 541 20 541L0 541Z" fill="#9c62cf"></path><path d="M0 397L20 402C40 407 80 417 120 415.8C160 414.7 200 402.3 240 392.3C280 382.3 320 374.7 360 379.3C400 384 440 401 480 402.5C520 404 560 390 600 384C640 378 680 380 720 378.7C760 377.3 800 372.7 840 378.3C880 384 920 400 940 408L960 416L960 541L940 541C920 541 880 541 840 541C800 541 760 541 720 541C680 541 640 541 600 541C560 541 520 541 480 541C440 541 400 541 360 541C320 541 280 541 240 541C200 541 160 541 120 541C80 541 40 541 20 541L0 541Z" fill="#7e47ad"></path><path d="M0 460L20 460.8C40 461.7 80 463.3 120 463.2C160 463 200 461 240 453.3C280 445.7 320 432.3 360 433.7C400 435 440 451 480 450.7C520 450.3 560 433.7 600 433.3C640 433 680 449 720 450.8C760 452.7 800 440.3 840 440.8C880 441.3 920 454.7 940 461.3L960 468L960 541L940 541C920 541 880 541 840 541C800 541 760 541 720 541C680 541 640 541 600 541C560 541 520 541 480 541C440 541 400 541 360 541C320 541 280 541 240 541C200 541 160 541 120 541C80 541 40 541 20 541L0 541Z" fill="#612d8c"></path><path d="M0 492L20 494.8C40 497.7 80 503.3 120 498.7C160 494 200 479 240 476.3C280 473.7 320 483.3 360 488.3C400 493.3 440 493.7 480 495.2C520 496.7 560 499.3 600 495.7C640 492 680 482 720 475C760 468 800 464 840 466.3C880 468.7 920 477.3 940 481.7L960 486L960 541L940 541C920 541 880 541 840 541C800 541 760 541 720 541C680 541 640 541 600 541C560 541 520 541 480 541C440 541 400 541 360 541C320 541 280 541 240 541C200 541 160 541 120 541C80 541 40 541 20 541L0 541Z" fill="#45136d"></path></svg>