<svg id="visual" viewBox="0 0 960 540" width="960" height="540" xmlns="http://www.w3.org/2000/svg" xmlns:xlink="http://www.w3.org/1999/xlink" version="1.1"><rect x="0" y="0" width="960" height="540" fill="#161a1d"></rect><path d="M0 195L26.7 198.5C53.3 202 106.7 209 160 213C213.3 217 266.7 218 320 213.2C373.3 208.3 426.7 197.7 480 192C533.3 186.3 586.7 185.7 640 190.8C693.3 196 746.7 207 800 206.7C853.3 206.3 906.7 194.7 933.3 188.8L960 183L960 0L933.3 0C906.7 0 853.3 0 800 0C746.7 0 693.3 0 640 0C586.7 0 533.3 0 480 0C426.7 0 373.3 0 320 0C266.7 0 213.3 0 160 0C106.7 0 53.3 0 26.7 0L0 0Z" fill="#a067d4"></path><path d="M0 148L26.7 149.7C53.3 151.3 106.7 154.7 160 158.3C213.3 162 266.7 166 320 170.7C373.3 175.3 426.7 180.7 480 175.8C533.3 171 586.7 156 640 151.2C693.3 146.3 746.7 151.7 800 157.3C853.3 163 906.7 169 933.3 172L960 175L960 0L933.3 0C906.7 0 853.3 0 800 0C746.7 0 693.3 0 640 0C586.7 0 533.3 0 480 0C426.7 0 373.3 0 320 0C266.7 0 213.3 0 160 0C106.7 0 53.3 0 26.7 0L0 0Z" fill="#8b54be"></path><path d="M0 113L26.7 113C53.3 113 106.7 113 160 115.2C213.3 117.3 266.7 121.7 320 128.2C373.3 134.7 426.7 143.3 480 146.3C533.3 149.3 586.7 146.7 640 141C693.3 135.3 746.7 126.7 800 126.5C853.3 126.3 906.7 134.7 933.3 138.8L960 143L960 0L933.3 0C906.7 0 853.3 0 800 0C746.7 0 693.3 0 640 0C586.7 0 533.3 0 480 0C426.7 0 373.3 0 320 0C266.7 0 213.3 0 160 0C106.7 0 53.3 0 26.7 0L0 0Z" fill="#7742a9"></path><path d="M0 120L26.7 116.8C53.3 113.7 106.7 107.3 160 102.3C213.3 97.3 266.7 93.7 320 97.8C373.3 102 426.7 114 480 111.8C533.3 109.7 586.7 93.3 640 91.7C693.3 90 746.7 103 800 108.2C853.3 113.3 906.7 110.7 933.3 109.3L960 108L960 0L933.3 0C906.7 0 853.3 0 800 0C746.7 0 693.3 0 640 0C586.7 0 533.3 0 480 0C426.7 0 373.3 0 320 0C266.7 0 213.3 0 160 0C106.7 0 53.3 0 26.7 0L0 0Z" fill="#633095"></path><path d="M0 74L26.7 69.5C53.3 65 106.7 56 160 56.2C213.3 56.3 266.7 65.7 320 67.3C373.3 69 426.7 63 480 60.5C533.3 58 586.7 59 640 57.8C693.3 56.7 746.7 53.3 800 55.8C853.3 58.3 906.7 66.7 933.3 70.8L960 75L960 0L933.3 0C906.7 0 853.3 0 800 0C746.7 0 693.3 0 640 0C586.7 0 533.3 0 480 0C426.7 0 373.3 0 320 0C266.7 0 213.3 0 160 0C106.7 0 53.3 0 26.7 0L0 0Z" fill="#4f1e80"></path><path d="M0 21L26.7 24.7C53.3 28.3 106.7 35.7 160 35.2C213.3 34.7 266.7 26.3 320 26.8C373.3 27.3 426.7 36.7 480 39.2C533.3 41.7 586.7 37.3 640 39.2C693.3 41 746.7 49 800 53C853.3 57 906.7 57 933.3 57L960 57L960 0L933.3 0C906.7 0 853.3 0 800 0C746.7 0 693.3 0 640 0C586.7 0 533.3 0 480 0C426.7 0 373.3 0 320 0C266.7 0 213.3 0 160 0C106.7 0 53.3 0 26.7 0L0 0Z" fill="#3c096c"></path></svg>