<svg id="visual" viewBox="0 0 960 540" width="960" height="540" xmlns="http://www.w3.org/2000/svg" xmlns:xlink="http://www.w3.org/1999/xlink" version="1.1"><rect x="0" y="0" width="960" height="540" fill="#F7FFF7"></rect><path d="M0 264L26.7 277.8C53.3 291.7 106.7 319.3 160 326C213.3 332.7 266.7 318.3 320 312.8C373.3 307.3 426.7 310.7 480 312.5C533.3 314.3 586.7 314.7 640 308C693.3 301.3 746.7 287.7 800 283.2C853.3 278.7 906.7 283.3 933.3 285.7L960 288L960 541L933.3 541C906.7 541 853.3 541 800 541C746.7 541 693.3 541 640 541C586.7 541 533.3 541 480 541C426.7 541 373.3 541 320 541C266.7 541 213.3 541 160 541C106.7 541 53.3 541 26.7 541L0 541Z" fill="#a876d7"></path><path d="M0 332L26.7 333C53.3 334 106.7 336 160 338.8C213.3 341.7 266.7 345.3 320 340.5C373.3 335.7 426.7 322.3 480 323.2C533.3 324 586.7 339 640 347.2C693.3 355.3 746.7 356.7 800 358.7C853.3 360.7 906.7 363.3 933.3 364.7L960 366L960 541L933.3 541C906.7 541 853.3 541 800 541C746.7 541 693.3 541 640 541C586.7 541 533.3 541 480 541C426.7 541 373.3 541 320 541C266.7 541 213.3 541 160 541C106.7 541 53.3 541 26.7 541L0 541Z" fill="#9260c1"></path><path d="M0 369L26.7 372.7C53.3 376.3 106.7 383.7 160 390.8C213.3 398 266.7 405 320 404.5C373.3 404 426.7 396 480 390.5C533.3 385 586.7 382 640 376.3C693.3 370.7 746.7 362.3 800 361.3C853.3 360.3 906.7 366.7 933.3 369.8L960 373L960 541L933.3 541C906.7 541 853.3 541 800 541C746.7 541 693.3 541 640 541C586.7 541 533.3 541 480 541C426.7 541 373.3 541 320 541C266.7 541 213.3 541 160 541C106.7 541 53.3 541 26.7 541L0 541Z" fill="#7c4bab"></path><path d="M0 448L26.7 438.7C53.3 429.3 106.7 410.7 160 403.5C213.3 396.3 266.7 400.7 320 405C373.3 409.3 426.7 413.7 480 415.3C533.3 417 586.7 416 640 413.3C693.3 410.7 746.7 406.3 800 407.2C853.3 408 906.7 414 933.3 417L960 420L960 541L933.3 541C906.7 541 853.3 541 800 541C746.7 541 693.3 541 640 541C586.7 541 533.3 541 480 541C426.7 541 373.3 541 320 541C266.7 541 213.3 541 160 541C106.7 541 53.3 541 26.7 541L0 541Z" fill="#663695"></path><path d="M0 428L26.7 429.7C53.3 431.3 106.7 434.7 160 439C213.3 443.3 266.7 448.7 320 449.3C373.3 450 426.7 446 480 442.8C533.3 439.7 586.7 437.3 640 437.2C693.3 437 746.7 439 800 441.2C853.3 443.3 906.7 445.7 933.3 446.8L960 448L960 541L933.3 541C906.7 541 853.3 541 800 541C746.7 541 693.3 541 640 541C586.7 541 533.3 541 480 541C426.7 541 373.3 541 320 541C266.7 541 213.3 541 160 541C106.7 541 53.3 541 26.7 541L0 541Z" fill="#512180"></path><path d="M0 504L26.7 503.2C53.3 502.3 106.7 500.7 160 501.3C213.3 502 266.7 505 320 502.8C373.3 500.7 426.7 493.3 480 494.5C533.3 495.7 586.7 505.3 640 506C693.3 506.7 746.7 498.3 800 496.3C853.3 494.3 906.7 498.7 933.3 500.8L960 503L960 541L933.3 541C906.7 541 853.3 541 800 541C746.7 541 693.3 541 640 541C586.7 541 533.3 541 480 541C426.7 541 373.3 541 320 541C266.7 541 213.3 541 160 541C106.7 541 53.3 541 26.7 541L0 541Z" fill="#3c096c"></path></svg>